<?xml version="1.0" encoding="utf-8"?>
<svg xmlns="http://www.w3.org/2000/svg" xmlns:xlink="http://www.w3.org/1999/xlink" width="600" height="400" viewBox="0 0 2400 1600">
<defs>
  <clipPath id="clip970">
    <rect x="0" y="0" width="2400" height="1600"/>
  </clipPath>
</defs>
<path clip-path="url(#clip970)" d="
M0 1600 L2400 1600 L2400 0 L0 0  Z
  " fill="#ffffff" fill-rule="evenodd" fill-opacity="1"/>
<defs>
  <clipPath id="clip971">
    <rect x="480" y="0" width="1681" height="1600"/>
  </clipPath>
</defs>
<path clip-path="url(#clip970)" d="
M156.598 1486.45 L2352.76 1486.45 L2352.76 47.2441 L156.598 47.2441  Z
  " fill="#ffffff" fill-rule="evenodd" fill-opacity="1"/>
<defs>
  <clipPath id="clip972">
    <rect x="156" y="47" width="2197" height="1440"/>
  </clipPath>
</defs>
<polyline clip-path="url(#clip972)" style="stroke:#000000; stroke-linecap:butt; stroke-linejoin:round; stroke-width:2; stroke-opacity:0.1; fill:none" points="
  218.754,1486.45 218.754,47.2441 
  "/>
<polyline clip-path="url(#clip972)" style="stroke:#000000; stroke-linecap:butt; stroke-linejoin:round; stroke-width:2; stroke-opacity:0.1; fill:none" points="
  736.715,1486.45 736.715,47.2441 
  "/>
<polyline clip-path="url(#clip972)" style="stroke:#000000; stroke-linecap:butt; stroke-linejoin:round; stroke-width:2; stroke-opacity:0.1; fill:none" points="
  1254.68,1486.45 1254.68,47.2441 
  "/>
<polyline clip-path="url(#clip972)" style="stroke:#000000; stroke-linecap:butt; stroke-linejoin:round; stroke-width:2; stroke-opacity:0.1; fill:none" points="
  1772.64,1486.45 1772.64,47.2441 
  "/>
<polyline clip-path="url(#clip972)" style="stroke:#000000; stroke-linecap:butt; stroke-linejoin:round; stroke-width:2; stroke-opacity:0.1; fill:none" points="
  2290.6,1486.45 2290.6,47.2441 
  "/>
<polyline clip-path="url(#clip970)" style="stroke:#000000; stroke-linecap:butt; stroke-linejoin:round; stroke-width:4; stroke-opacity:1; fill:none" points="
  156.598,1486.45 2352.76,1486.45 
  "/>
<polyline clip-path="url(#clip970)" style="stroke:#000000; stroke-linecap:butt; stroke-linejoin:round; stroke-width:4; stroke-opacity:1; fill:none" points="
  218.754,1486.45 218.754,1467.55 
  "/>
<polyline clip-path="url(#clip970)" style="stroke:#000000; stroke-linecap:butt; stroke-linejoin:round; stroke-width:4; stroke-opacity:1; fill:none" points="
  736.715,1486.45 736.715,1467.55 
  "/>
<polyline clip-path="url(#clip970)" style="stroke:#000000; stroke-linecap:butt; stroke-linejoin:round; stroke-width:4; stroke-opacity:1; fill:none" points="
  1254.68,1486.45 1254.68,1467.55 
  "/>
<polyline clip-path="url(#clip970)" style="stroke:#000000; stroke-linecap:butt; stroke-linejoin:round; stroke-width:4; stroke-opacity:1; fill:none" points="
  1772.64,1486.45 1772.64,1467.55 
  "/>
<polyline clip-path="url(#clip970)" style="stroke:#000000; stroke-linecap:butt; stroke-linejoin:round; stroke-width:4; stroke-opacity:1; fill:none" points="
  2290.6,1486.45 2290.6,1467.55 
  "/>
<path clip-path="url(#clip970)" d="M185.907 1543.18 L193.545 1543.18 L193.545 1516.82 L185.235 1518.49 L185.235 1514.23 L193.499 1512.56 L198.175 1512.56 L198.175 1543.18 L205.814 1543.18 L205.814 1547.12 L185.907 1547.12 L185.907 1543.18 Z" fill="#000000" fill-rule="evenodd" fill-opacity="1" /><path clip-path="url(#clip970)" d="M215.258 1541.24 L220.143 1541.24 L220.143 1547.12 L215.258 1547.12 L215.258 1541.24 Z" fill="#000000" fill-rule="evenodd" fill-opacity="1" /><path clip-path="url(#clip970)" d="M240.328 1515.64 Q236.717 1515.64 234.888 1519.2 Q233.082 1522.75 233.082 1529.87 Q233.082 1536.98 234.888 1540.55 Q236.717 1544.09 240.328 1544.09 Q243.962 1544.09 245.767 1540.55 Q247.596 1536.98 247.596 1529.87 Q247.596 1522.75 245.767 1519.2 Q243.962 1515.64 240.328 1515.64 M240.328 1511.93 Q246.138 1511.93 249.193 1516.54 Q252.272 1521.12 252.272 1529.87 Q252.272 1538.6 249.193 1543.21 Q246.138 1547.79 240.328 1547.79 Q234.517 1547.79 231.439 1543.21 Q228.383 1538.6 228.383 1529.87 Q228.383 1521.12 231.439 1516.54 Q234.517 1511.93 240.328 1511.93 Z" fill="#000000" fill-rule="evenodd" fill-opacity="1" /><path clip-path="url(#clip970)" d="M704.366 1543.18 L712.005 1543.18 L712.005 1516.82 L703.695 1518.49 L703.695 1514.23 L711.959 1512.56 L716.634 1512.56 L716.634 1543.18 L724.273 1543.18 L724.273 1547.12 L704.366 1547.12 L704.366 1543.18 Z" fill="#000000" fill-rule="evenodd" fill-opacity="1" /><path clip-path="url(#clip970)" d="M733.718 1541.24 L738.602 1541.24 L738.602 1547.12 L733.718 1547.12 L733.718 1541.24 Z" fill="#000000" fill-rule="evenodd" fill-opacity="1" /><path clip-path="url(#clip970)" d="M748.833 1512.56 L767.19 1512.56 L767.19 1516.5 L753.116 1516.5 L753.116 1524.97 Q754.134 1524.62 755.153 1524.46 Q756.171 1524.27 757.19 1524.27 Q762.977 1524.27 766.356 1527.44 Q769.736 1530.62 769.736 1536.03 Q769.736 1541.61 766.264 1544.71 Q762.792 1547.79 756.472 1547.79 Q754.296 1547.79 752.028 1547.42 Q749.782 1547.05 747.375 1546.31 L747.375 1541.61 Q749.458 1542.74 751.681 1543.3 Q753.903 1543.86 756.38 1543.86 Q760.384 1543.86 762.722 1541.75 Q765.06 1539.64 765.06 1536.03 Q765.06 1532.42 762.722 1530.31 Q760.384 1528.21 756.38 1528.21 Q754.505 1528.21 752.63 1528.62 Q750.778 1529.04 748.833 1529.92 L748.833 1512.56 Z" fill="#000000" fill-rule="evenodd" fill-opacity="1" /><path clip-path="url(#clip970)" d="M1225.92 1543.18 L1242.24 1543.18 L1242.24 1547.12 L1220.29 1547.12 L1220.29 1543.18 Q1222.95 1540.43 1227.54 1535.8 Q1232.14 1531.15 1233.32 1529.81 Q1235.57 1527.28 1236.45 1525.55 Q1237.35 1523.79 1237.35 1522.1 Q1237.35 1519.34 1235.41 1517.61 Q1233.49 1515.87 1230.38 1515.87 Q1228.18 1515.87 1225.73 1516.63 Q1223.3 1517.4 1220.52 1518.95 L1220.52 1514.23 Q1223.35 1513.09 1225.8 1512.51 Q1228.25 1511.93 1230.29 1511.93 Q1235.66 1511.93 1238.86 1514.62 Q1242.05 1517.31 1242.05 1521.8 Q1242.05 1523.93 1241.24 1525.85 Q1240.45 1527.74 1238.35 1530.34 Q1237.77 1531.01 1234.67 1534.23 Q1231.56 1537.42 1225.92 1543.18 Z" fill="#000000" fill-rule="evenodd" fill-opacity="1" /><path clip-path="url(#clip970)" d="M1252.05 1541.24 L1256.93 1541.24 L1256.93 1547.12 L1252.05 1547.12 L1252.05 1541.24 Z" fill="#000000" fill-rule="evenodd" fill-opacity="1" /><path clip-path="url(#clip970)" d="M1277.12 1515.64 Q1273.51 1515.64 1271.68 1519.2 Q1269.87 1522.75 1269.87 1529.87 Q1269.87 1536.98 1271.68 1540.55 Q1273.51 1544.09 1277.12 1544.09 Q1280.75 1544.09 1282.56 1540.55 Q1284.39 1536.98 1284.39 1529.87 Q1284.39 1522.75 1282.56 1519.2 Q1280.75 1515.64 1277.12 1515.64 M1277.12 1511.93 Q1282.93 1511.93 1285.98 1516.54 Q1289.06 1521.12 1289.06 1529.87 Q1289.06 1538.6 1285.98 1543.21 Q1282.93 1547.79 1277.12 1547.79 Q1271.31 1547.79 1268.23 1543.21 Q1265.17 1538.6 1265.17 1529.87 Q1265.17 1521.12 1268.23 1516.54 Q1271.31 1511.93 1277.12 1511.93 Z" fill="#000000" fill-rule="evenodd" fill-opacity="1" /><path clip-path="url(#clip970)" d="M1744.38 1543.18 L1760.69 1543.18 L1760.69 1547.12 L1738.75 1547.12 L1738.75 1543.18 Q1741.41 1540.43 1746 1535.8 Q1750.6 1531.15 1751.78 1529.81 Q1754.03 1527.28 1754.91 1525.55 Q1755.81 1523.79 1755.81 1522.1 Q1755.81 1519.34 1753.87 1517.61 Q1751.94 1515.87 1748.84 1515.87 Q1746.64 1515.87 1744.19 1516.63 Q1741.76 1517.4 1738.98 1518.95 L1738.98 1514.23 Q1741.81 1513.09 1744.26 1512.51 Q1746.71 1511.93 1748.75 1511.93 Q1754.12 1511.93 1757.31 1514.62 Q1760.51 1517.31 1760.51 1521.8 Q1760.51 1523.93 1759.7 1525.85 Q1758.91 1527.74 1756.81 1530.34 Q1756.23 1531.01 1753.13 1534.23 Q1750.02 1537.42 1744.38 1543.18 Z" fill="#000000" fill-rule="evenodd" fill-opacity="1" /><path clip-path="url(#clip970)" d="M1770.51 1541.24 L1775.39 1541.24 L1775.39 1547.12 L1770.51 1547.12 L1770.51 1541.24 Z" fill="#000000" fill-rule="evenodd" fill-opacity="1" /><path clip-path="url(#clip970)" d="M1785.62 1512.56 L1803.98 1512.56 L1803.98 1516.5 L1789.91 1516.5 L1789.91 1524.97 Q1790.93 1524.62 1791.94 1524.46 Q1792.96 1524.27 1793.98 1524.27 Q1799.77 1524.27 1803.15 1527.44 Q1806.53 1530.62 1806.53 1536.03 Q1806.53 1541.61 1803.06 1544.71 Q1799.58 1547.79 1793.26 1547.79 Q1791.09 1547.79 1788.82 1547.42 Q1786.57 1547.05 1784.17 1546.31 L1784.17 1541.61 Q1786.25 1542.74 1788.47 1543.3 Q1790.69 1543.86 1793.17 1543.86 Q1797.18 1543.86 1799.51 1541.75 Q1801.85 1539.64 1801.85 1536.03 Q1801.85 1532.42 1799.51 1530.31 Q1797.18 1528.21 1793.17 1528.21 Q1791.3 1528.21 1789.42 1528.62 Q1787.57 1529.04 1785.62 1529.92 L1785.62 1512.56 Z" fill="#000000" fill-rule="evenodd" fill-opacity="1" /><path clip-path="url(#clip970)" d="M2271.91 1528.49 Q2275.26 1529.2 2277.14 1531.47 Q2279.04 1533.74 2279.04 1537.07 Q2279.04 1542.19 2275.52 1544.99 Q2272 1547.79 2265.52 1547.79 Q2263.34 1547.79 2261.03 1547.35 Q2258.74 1546.93 2256.28 1546.08 L2256.28 1541.56 Q2258.23 1542.7 2260.54 1543.28 Q2262.86 1543.86 2265.38 1543.86 Q2269.78 1543.86 2272.07 1542.12 Q2274.39 1540.38 2274.39 1537.07 Q2274.39 1534.02 2272.23 1532.31 Q2270.1 1530.57 2266.28 1530.57 L2262.26 1530.57 L2262.26 1526.73 L2266.47 1526.73 Q2269.92 1526.73 2271.75 1525.36 Q2273.58 1523.97 2273.58 1521.38 Q2273.58 1518.72 2271.68 1517.31 Q2269.8 1515.87 2266.28 1515.87 Q2264.36 1515.87 2262.16 1516.29 Q2259.96 1516.7 2257.33 1517.58 L2257.33 1513.42 Q2259.99 1512.68 2262.3 1512.31 Q2264.64 1511.93 2266.7 1511.93 Q2272.02 1511.93 2275.13 1514.37 Q2278.23 1516.77 2278.23 1520.89 Q2278.23 1523.76 2276.58 1525.75 Q2274.94 1527.72 2271.91 1528.49 Z" fill="#000000" fill-rule="evenodd" fill-opacity="1" /><path clip-path="url(#clip970)" d="M2287.9 1541.24 L2292.79 1541.24 L2292.79 1547.12 L2287.9 1547.12 L2287.9 1541.24 Z" fill="#000000" fill-rule="evenodd" fill-opacity="1" /><path clip-path="url(#clip970)" d="M2312.97 1515.64 Q2309.36 1515.64 2307.53 1519.2 Q2305.73 1522.75 2305.73 1529.87 Q2305.73 1536.98 2307.53 1540.55 Q2309.36 1544.09 2312.97 1544.09 Q2316.61 1544.09 2318.41 1540.55 Q2320.24 1536.98 2320.24 1529.87 Q2320.24 1522.75 2318.41 1519.2 Q2316.61 1515.64 2312.97 1515.64 M2312.97 1511.93 Q2318.78 1511.93 2321.84 1516.54 Q2324.92 1521.12 2324.92 1529.87 Q2324.92 1538.6 2321.84 1543.21 Q2318.78 1547.79 2312.97 1547.79 Q2307.16 1547.79 2304.08 1543.21 Q2301.03 1538.6 2301.03 1529.87 Q2301.03 1521.12 2304.08 1516.54 Q2307.16 1511.93 2312.97 1511.93 Z" fill="#000000" fill-rule="evenodd" fill-opacity="1" /><polyline clip-path="url(#clip972)" style="stroke:#000000; stroke-linecap:butt; stroke-linejoin:round; stroke-width:2; stroke-opacity:0.1; fill:none" points="
  156.598,1476.22 2352.76,1476.22 
  "/>
<polyline clip-path="url(#clip972)" style="stroke:#000000; stroke-linecap:butt; stroke-linejoin:round; stroke-width:2; stroke-opacity:0.1; fill:none" points="
  156.598,1183.21 2352.76,1183.21 
  "/>
<polyline clip-path="url(#clip972)" style="stroke:#000000; stroke-linecap:butt; stroke-linejoin:round; stroke-width:2; stroke-opacity:0.1; fill:none" points="
  156.598,890.201 2352.76,890.201 
  "/>
<polyline clip-path="url(#clip972)" style="stroke:#000000; stroke-linecap:butt; stroke-linejoin:round; stroke-width:2; stroke-opacity:0.1; fill:none" points="
  156.598,597.19 2352.76,597.19 
  "/>
<polyline clip-path="url(#clip972)" style="stroke:#000000; stroke-linecap:butt; stroke-linejoin:round; stroke-width:2; stroke-opacity:0.1; fill:none" points="
  156.598,304.178 2352.76,304.178 
  "/>
<polyline clip-path="url(#clip970)" style="stroke:#000000; stroke-linecap:butt; stroke-linejoin:round; stroke-width:4; stroke-opacity:1; fill:none" points="
  156.598,1486.45 156.598,47.2441 
  "/>
<polyline clip-path="url(#clip970)" style="stroke:#000000; stroke-linecap:butt; stroke-linejoin:round; stroke-width:4; stroke-opacity:1; fill:none" points="
  156.598,1476.22 175.496,1476.22 
  "/>
<polyline clip-path="url(#clip970)" style="stroke:#000000; stroke-linecap:butt; stroke-linejoin:round; stroke-width:4; stroke-opacity:1; fill:none" points="
  156.598,1183.21 175.496,1183.21 
  "/>
<polyline clip-path="url(#clip970)" style="stroke:#000000; stroke-linecap:butt; stroke-linejoin:round; stroke-width:4; stroke-opacity:1; fill:none" points="
  156.598,890.201 175.496,890.201 
  "/>
<polyline clip-path="url(#clip970)" style="stroke:#000000; stroke-linecap:butt; stroke-linejoin:round; stroke-width:4; stroke-opacity:1; fill:none" points="
  156.598,597.19 175.496,597.19 
  "/>
<polyline clip-path="url(#clip970)" style="stroke:#000000; stroke-linecap:butt; stroke-linejoin:round; stroke-width:4; stroke-opacity:1; fill:none" points="
  156.598,304.178 175.496,304.178 
  "/>
<path clip-path="url(#clip970)" d="M63.4226 1462.02 Q59.8115 1462.02 57.9828 1465.59 Q56.1773 1469.13 56.1773 1476.26 Q56.1773 1483.37 57.9828 1486.93 Q59.8115 1490.47 63.4226 1490.47 Q67.0569 1490.47 68.8624 1486.93 Q70.6911 1483.37 70.6911 1476.26 Q70.6911 1469.13 68.8624 1465.59 Q67.0569 1462.02 63.4226 1462.02 M63.4226 1458.32 Q69.2328 1458.32 72.2883 1462.93 Q75.367 1467.51 75.367 1476.26 Q75.367 1484.99 72.2883 1489.59 Q69.2328 1494.18 63.4226 1494.18 Q57.6125 1494.18 54.5338 1489.59 Q51.4782 1484.99 51.4782 1476.26 Q51.4782 1467.51 54.5338 1462.93 Q57.6125 1458.32 63.4226 1458.32 Z" fill="#000000" fill-rule="evenodd" fill-opacity="1" /><path clip-path="url(#clip970)" d="M83.5845 1487.63 L88.4688 1487.63 L88.4688 1493.5 L83.5845 1493.5 L83.5845 1487.63 Z" fill="#000000" fill-rule="evenodd" fill-opacity="1" /><path clip-path="url(#clip970)" d="M108.654 1462.02 Q105.043 1462.02 103.214 1465.59 Q101.409 1469.13 101.409 1476.26 Q101.409 1483.37 103.214 1486.93 Q105.043 1490.47 108.654 1490.47 Q112.288 1490.47 114.094 1486.93 Q115.922 1483.37 115.922 1476.26 Q115.922 1469.13 114.094 1465.59 Q112.288 1462.02 108.654 1462.02 M108.654 1458.32 Q114.464 1458.32 117.52 1462.93 Q120.598 1467.51 120.598 1476.26 Q120.598 1484.99 117.52 1489.59 Q114.464 1494.18 108.654 1494.18 Q102.844 1494.18 99.765 1489.59 Q96.7095 1484.99 96.7095 1476.26 Q96.7095 1467.51 99.765 1462.93 Q102.844 1458.32 108.654 1458.32 Z" fill="#000000" fill-rule="evenodd" fill-opacity="1" /><path clip-path="url(#clip970)" d="M65.0198 1169.01 Q61.4087 1169.01 59.58 1172.58 Q57.7745 1176.12 57.7745 1183.25 Q57.7745 1190.35 59.58 1193.92 Q61.4087 1197.46 65.0198 1197.46 Q68.6541 1197.46 70.4596 1193.92 Q72.2883 1190.35 72.2883 1183.25 Q72.2883 1176.12 70.4596 1172.58 Q68.6541 1169.01 65.0198 1169.01 M65.0198 1165.31 Q70.83 1165.31 73.8855 1169.91 Q76.9642 1174.5 76.9642 1183.25 Q76.9642 1191.97 73.8855 1196.58 Q70.83 1201.16 65.0198 1201.16 Q59.2097 1201.16 56.131 1196.58 Q53.0754 1191.97 53.0754 1183.25 Q53.0754 1174.5 56.131 1169.91 Q59.2097 1165.31 65.0198 1165.31 Z" fill="#000000" fill-rule="evenodd" fill-opacity="1" /><path clip-path="url(#clip970)" d="M85.1818 1194.61 L90.066 1194.61 L90.066 1200.49 L85.1818 1200.49 L85.1818 1194.61 Z" fill="#000000" fill-rule="evenodd" fill-opacity="1" /><path clip-path="url(#clip970)" d="M104.279 1196.56 L120.598 1196.56 L120.598 1200.49 L98.6539 1200.49 L98.6539 1196.56 Q101.316 1193.8 105.899 1189.17 Q110.506 1184.52 111.686 1183.18 Q113.932 1180.66 114.811 1178.92 Q115.714 1177.16 115.714 1175.47 Q115.714 1172.72 113.77 1170.98 Q111.848 1169.24 108.746 1169.24 Q106.547 1169.24 104.094 1170.01 Q101.663 1170.77 98.8854 1172.32 L98.8854 1167.6 Q101.709 1166.47 104.163 1165.89 Q106.617 1165.31 108.654 1165.31 Q114.024 1165.31 117.219 1167.99 Q120.413 1170.68 120.413 1175.17 Q120.413 1177.3 119.603 1179.22 Q118.816 1181.12 116.709 1183.71 Q116.131 1184.38 113.029 1187.6 Q109.927 1190.79 104.279 1196.56 Z" fill="#000000" fill-rule="evenodd" fill-opacity="1" /><path clip-path="url(#clip970)" d="M62.9365 876 Q59.3254 876 57.4967 879.565 Q55.6912 883.107 55.6912 890.236 Q55.6912 897.343 57.4967 900.907 Q59.3254 904.449 62.9365 904.449 Q66.5707 904.449 68.3763 900.907 Q70.205 897.343 70.205 890.236 Q70.205 883.107 68.3763 879.565 Q66.5707 876 62.9365 876 M62.9365 872.296 Q68.7467 872.296 71.8022 876.903 Q74.8809 881.486 74.8809 890.236 Q74.8809 898.963 71.8022 903.569 Q68.7467 908.153 62.9365 908.153 Q57.1264 908.153 54.0477 903.569 Q50.9921 898.963 50.9921 890.236 Q50.9921 881.486 54.0477 876.903 Q57.1264 872.296 62.9365 872.296 Z" fill="#000000" fill-rule="evenodd" fill-opacity="1" /><path clip-path="url(#clip970)" d="M83.0984 901.602 L87.9827 901.602 L87.9827 907.481 L83.0984 907.481 L83.0984 901.602 Z" fill="#000000" fill-rule="evenodd" fill-opacity="1" /><path clip-path="url(#clip970)" d="M111.015 876.995 L99.2095 895.444 L111.015 895.444 L111.015 876.995 M109.788 872.921 L115.668 872.921 L115.668 895.444 L120.598 895.444 L120.598 899.333 L115.668 899.333 L115.668 907.481 L111.015 907.481 L111.015 899.333 L95.4132 899.333 L95.4132 894.819 L109.788 872.921 Z" fill="#000000" fill-rule="evenodd" fill-opacity="1" /><path clip-path="url(#clip970)" d="M63.2606 582.988 Q59.6495 582.988 57.8208 586.553 Q56.0152 590.095 56.0152 597.224 Q56.0152 604.331 57.8208 607.896 Q59.6495 611.437 63.2606 611.437 Q66.8948 611.437 68.7004 607.896 Q70.5291 604.331 70.5291 597.224 Q70.5291 590.095 68.7004 586.553 Q66.8948 582.988 63.2606 582.988 M63.2606 579.285 Q69.0707 579.285 72.1263 583.891 Q75.205 588.474 75.205 597.224 Q75.205 605.951 72.1263 610.558 Q69.0707 615.141 63.2606 615.141 Q57.4504 615.141 54.3717 610.558 Q51.3162 605.951 51.3162 597.224 Q51.3162 588.474 54.3717 583.891 Q57.4504 579.285 63.2606 579.285 Z" fill="#000000" fill-rule="evenodd" fill-opacity="1" /><path clip-path="url(#clip970)" d="M83.4225 608.59 L88.3067 608.59 L88.3067 614.47 L83.4225 614.47 L83.4225 608.59 Z" fill="#000000" fill-rule="evenodd" fill-opacity="1" /><path clip-path="url(#clip970)" d="M109.071 595.326 Q105.922 595.326 104.071 597.479 Q102.242 599.632 102.242 603.382 Q102.242 607.109 104.071 609.285 Q105.922 611.437 109.071 611.437 Q112.219 611.437 114.047 609.285 Q115.899 607.109 115.899 603.382 Q115.899 599.632 114.047 597.479 Q112.219 595.326 109.071 595.326 M118.353 580.674 L118.353 584.933 Q116.594 584.1 114.788 583.66 Q113.006 583.22 111.246 583.22 Q106.617 583.22 104.163 586.345 Q101.733 589.47 101.385 595.789 Q102.751 593.775 104.811 592.711 Q106.871 591.623 109.348 591.623 Q114.557 591.623 117.566 594.794 Q120.598 597.942 120.598 603.382 Q120.598 608.706 117.45 611.923 Q114.302 615.141 109.071 615.141 Q103.075 615.141 99.9039 610.558 Q96.7326 605.951 96.7326 597.224 Q96.7326 589.03 100.621 584.169 Q104.51 579.285 111.061 579.285 Q112.82 579.285 114.603 579.632 Q116.408 579.979 118.353 580.674 Z" fill="#000000" fill-rule="evenodd" fill-opacity="1" /><path clip-path="url(#clip970)" d="M63.5152 289.977 Q59.9041 289.977 58.0754 293.542 Q56.2699 297.083 56.2699 304.213 Q56.2699 311.319 58.0754 314.884 Q59.9041 318.426 63.5152 318.426 Q67.1494 318.426 68.955 314.884 Q70.7837 311.319 70.7837 304.213 Q70.7837 297.083 68.955 293.542 Q67.1494 289.977 63.5152 289.977 M63.5152 286.273 Q69.3254 286.273 72.3809 290.88 Q75.4596 295.463 75.4596 304.213 Q75.4596 312.94 72.3809 317.546 Q69.3254 322.129 63.5152 322.129 Q57.7051 322.129 54.6264 317.546 Q51.5708 312.94 51.5708 304.213 Q51.5708 295.463 54.6264 290.88 Q57.7051 286.273 63.5152 286.273 Z" fill="#000000" fill-rule="evenodd" fill-opacity="1" /><path clip-path="url(#clip970)" d="M83.6771 315.578 L88.5614 315.578 L88.5614 321.458 L83.6771 321.458 L83.6771 315.578 Z" fill="#000000" fill-rule="evenodd" fill-opacity="1" /><path clip-path="url(#clip970)" d="M108.746 305.046 Q105.413 305.046 103.492 306.828 Q101.594 308.611 101.594 311.736 Q101.594 314.861 103.492 316.643 Q105.413 318.426 108.746 318.426 Q112.08 318.426 114.001 316.643 Q115.922 314.838 115.922 311.736 Q115.922 308.611 114.001 306.828 Q112.103 305.046 108.746 305.046 M104.071 303.055 Q101.061 302.315 99.3715 300.254 Q97.7048 298.194 97.7048 295.231 Q97.7048 291.088 100.645 288.68 Q103.608 286.273 108.746 286.273 Q113.908 286.273 116.848 288.68 Q119.788 291.088 119.788 295.231 Q119.788 298.194 118.098 300.254 Q116.432 302.315 113.445 303.055 Q116.825 303.842 118.7 306.134 Q120.598 308.426 120.598 311.736 Q120.598 316.759 117.52 319.444 Q114.464 322.129 108.746 322.129 Q103.029 322.129 99.9502 319.444 Q96.8947 316.759 96.8947 311.736 Q96.8947 308.426 98.7928 306.134 Q100.691 303.842 104.071 303.055 M102.358 295.671 Q102.358 298.356 104.024 299.861 Q105.714 301.366 108.746 301.366 Q111.756 301.366 113.445 299.861 Q115.158 298.356 115.158 295.671 Q115.158 292.986 113.445 291.481 Q111.756 289.977 108.746 289.977 Q105.714 289.977 104.024 291.481 Q102.358 292.986 102.358 295.671 Z" fill="#000000" fill-rule="evenodd" fill-opacity="1" /><circle clip-path="url(#clip972)" cx="1254.68" cy="442.976" r="14" fill="#4ccc4c" fill-rule="evenodd" fill-opacity="1" stroke="#000000" stroke-opacity="1" stroke-width="3.2"/>
<circle clip-path="url(#clip972)" cx="218.754" cy="1344.32" r="14" fill="#cc4ccc" fill-rule="evenodd" fill-opacity="1" stroke="#000000" stroke-opacity="1" stroke-width="3.2"/>
<circle clip-path="url(#clip972)" cx="1254.68" cy="1445.72" r="14" fill="#4ccc4c" fill-rule="evenodd" fill-opacity="1" stroke="#000000" stroke-opacity="1" stroke-width="3.2"/>
<circle clip-path="url(#clip972)" cx="218.754" cy="1353.89" r="14" fill="#cc4ccc" fill-rule="evenodd" fill-opacity="1" stroke="#000000" stroke-opacity="1" stroke-width="3.2"/>
<circle clip-path="url(#clip972)" cx="2290.6" cy="546.326" r="14" fill="#ff4c4c" fill-rule="evenodd" fill-opacity="1" stroke="#000000" stroke-opacity="1" stroke-width="3.2"/>
<circle clip-path="url(#clip972)" cx="218.754" cy="1334.55" r="14" fill="#cc4ccc" fill-rule="evenodd" fill-opacity="1" stroke="#000000" stroke-opacity="1" stroke-width="3.2"/>
<circle clip-path="url(#clip972)" cx="2290.6" cy="502.572" r="14" fill="#ff4c4c" fill-rule="evenodd" fill-opacity="1" stroke="#000000" stroke-opacity="1" stroke-width="3.2"/>
<circle clip-path="url(#clip972)" cx="1254.68" cy="569.046" r="14" fill="#4ccc4c" fill-rule="evenodd" fill-opacity="1" stroke="#000000" stroke-opacity="1" stroke-width="3.2"/>
<circle clip-path="url(#clip972)" cx="218.754" cy="887.23" r="14" fill="#cc4ccc" fill-rule="evenodd" fill-opacity="1" stroke="#000000" stroke-opacity="1" stroke-width="3.2"/>
<circle clip-path="url(#clip972)" cx="218.754" cy="1336.06" r="14" fill="#cc4ccc" fill-rule="evenodd" fill-opacity="1" stroke="#000000" stroke-opacity="1" stroke-width="3.2"/>
<circle clip-path="url(#clip972)" cx="218.754" cy="1154.8" r="14" fill="#cc4ccc" fill-rule="evenodd" fill-opacity="1" stroke="#000000" stroke-opacity="1" stroke-width="3.2"/>
<circle clip-path="url(#clip972)" cx="1254.68" cy="541.805" r="14" fill="#4ccc4c" fill-rule="evenodd" fill-opacity="1" stroke="#000000" stroke-opacity="1" stroke-width="3.2"/>
<circle clip-path="url(#clip972)" cx="1254.68" cy="611.823" r="14" fill="#4ccc4c" fill-rule="evenodd" fill-opacity="1" stroke="#000000" stroke-opacity="1" stroke-width="3.2"/>
<circle clip-path="url(#clip972)" cx="1254.68" cy="87.9763" r="14" fill="#4ccc4c" fill-rule="evenodd" fill-opacity="1" stroke="#000000" stroke-opacity="1" stroke-width="3.2"/>
<circle clip-path="url(#clip972)" cx="2290.6" cy="104.528" r="14" fill="#ff4c4c" fill-rule="evenodd" fill-opacity="1" stroke="#000000" stroke-opacity="1" stroke-width="3.2"/>
</svg>
