<?xml version="1.0" encoding="utf-8"?>
<svg xmlns="http://www.w3.org/2000/svg" xmlns:xlink="http://www.w3.org/1999/xlink" width="600" height="400" viewBox="0 0 2400 1600">
<defs>
  <clipPath id="clip770">
    <rect x="0" y="0" width="2400" height="1600"/>
  </clipPath>
</defs>
<path clip-path="url(#clip770)" d="
M0 1600 L2400 1600 L2400 0 L0 0  Z
  " fill="#ffffff" fill-rule="evenodd" fill-opacity="1"/>
<defs>
  <clipPath id="clip771">
    <rect x="480" y="0" width="1681" height="1600"/>
  </clipPath>
</defs>
<path clip-path="url(#clip770)" d="
M249.542 1423.18 L2352.76 1423.18 L2352.76 47.2441 L249.542 47.2441  Z
  " fill="#ffffff" fill-rule="evenodd" fill-opacity="1"/>
<defs>
  <clipPath id="clip772">
    <rect x="249" y="47" width="2104" height="1377"/>
  </clipPath>
</defs>
<polyline clip-path="url(#clip772)" style="stroke:#000000; stroke-linecap:butt; stroke-linejoin:round; stroke-width:2; stroke-opacity:0.1; fill:none" points="
  309.067,1423.18 309.067,47.2441 
  "/>
<polyline clip-path="url(#clip772)" style="stroke:#000000; stroke-linecap:butt; stroke-linejoin:round; stroke-width:2; stroke-opacity:0.1; fill:none" points="
  705.9,1423.18 705.9,47.2441 
  "/>
<polyline clip-path="url(#clip772)" style="stroke:#000000; stroke-linecap:butt; stroke-linejoin:round; stroke-width:2; stroke-opacity:0.1; fill:none" points="
  1102.73,1423.18 1102.73,47.2441 
  "/>
<polyline clip-path="url(#clip772)" style="stroke:#000000; stroke-linecap:butt; stroke-linejoin:round; stroke-width:2; stroke-opacity:0.1; fill:none" points="
  1499.57,1423.18 1499.57,47.2441 
  "/>
<polyline clip-path="url(#clip772)" style="stroke:#000000; stroke-linecap:butt; stroke-linejoin:round; stroke-width:2; stroke-opacity:0.1; fill:none" points="
  1896.4,1423.18 1896.4,47.2441 
  "/>
<polyline clip-path="url(#clip772)" style="stroke:#000000; stroke-linecap:butt; stroke-linejoin:round; stroke-width:2; stroke-opacity:0.1; fill:none" points="
  2293.23,1423.18 2293.23,47.2441 
  "/>
<polyline clip-path="url(#clip770)" style="stroke:#000000; stroke-linecap:butt; stroke-linejoin:round; stroke-width:4; stroke-opacity:1; fill:none" points="
  249.542,1423.18 2352.76,1423.18 
  "/>
<polyline clip-path="url(#clip770)" style="stroke:#000000; stroke-linecap:butt; stroke-linejoin:round; stroke-width:4; stroke-opacity:1; fill:none" points="
  309.067,1423.18 309.067,1404.28 
  "/>
<polyline clip-path="url(#clip770)" style="stroke:#000000; stroke-linecap:butt; stroke-linejoin:round; stroke-width:4; stroke-opacity:1; fill:none" points="
  705.9,1423.18 705.9,1404.28 
  "/>
<polyline clip-path="url(#clip770)" style="stroke:#000000; stroke-linecap:butt; stroke-linejoin:round; stroke-width:4; stroke-opacity:1; fill:none" points="
  1102.73,1423.18 1102.73,1404.28 
  "/>
<polyline clip-path="url(#clip770)" style="stroke:#000000; stroke-linecap:butt; stroke-linejoin:round; stroke-width:4; stroke-opacity:1; fill:none" points="
  1499.57,1423.18 1499.57,1404.28 
  "/>
<polyline clip-path="url(#clip770)" style="stroke:#000000; stroke-linecap:butt; stroke-linejoin:round; stroke-width:4; stroke-opacity:1; fill:none" points="
  1896.4,1423.18 1896.4,1404.28 
  "/>
<polyline clip-path="url(#clip770)" style="stroke:#000000; stroke-linecap:butt; stroke-linejoin:round; stroke-width:4; stroke-opacity:1; fill:none" points="
  2293.23,1423.18 2293.23,1404.28 
  "/>
<path clip-path="url(#clip770)" d="M303.72 1479.92 L320.039 1479.92 L320.039 1483.85 L298.095 1483.85 L298.095 1479.92 Q300.757 1477.16 305.34 1472.53 Q309.947 1467.88 311.127 1466.54 Q313.372 1464.01 314.252 1462.28 Q315.155 1460.52 315.155 1458.83 Q315.155 1456.07 313.21 1454.34 Q311.289 1452.6 308.187 1452.6 Q305.988 1452.6 303.535 1453.37 Q301.104 1454.13 298.326 1455.68 L298.326 1450.96 Q301.15 1449.82 303.604 1449.25 Q306.058 1448.67 308.095 1448.67 Q313.465 1448.67 316.66 1451.35 Q319.854 1454.04 319.854 1458.53 Q319.854 1460.66 319.044 1462.58 Q318.257 1464.48 316.15 1467.07 Q315.572 1467.74 312.47 1470.96 Q309.368 1474.15 303.72 1479.92 Z" fill="#000000" fill-rule="evenodd" fill-opacity="1" /><path clip-path="url(#clip770)" d="M710.147 1465.22 Q713.504 1465.94 715.379 1468.2 Q717.277 1470.47 717.277 1473.81 Q717.277 1478.92 713.759 1481.72 Q710.24 1484.52 703.759 1484.52 Q701.583 1484.52 699.268 1484.08 Q696.976 1483.67 694.523 1482.81 L694.523 1478.3 Q696.467 1479.43 698.782 1480.01 Q701.097 1480.59 703.62 1480.59 Q708.018 1480.59 710.309 1478.85 Q712.624 1477.12 712.624 1473.81 Q712.624 1470.75 710.471 1469.04 Q708.342 1467.3 704.522 1467.3 L700.495 1467.3 L700.495 1463.46 L704.708 1463.46 Q708.157 1463.46 709.985 1462.09 Q711.814 1460.7 711.814 1458.11 Q711.814 1455.45 709.916 1454.04 Q708.041 1452.6 704.522 1452.6 Q702.601 1452.6 700.402 1453.02 Q698.203 1453.44 695.564 1454.31 L695.564 1450.15 Q698.226 1449.41 700.541 1449.04 Q702.879 1448.67 704.939 1448.67 Q710.263 1448.67 713.365 1451.1 Q716.467 1453.5 716.467 1457.63 Q716.467 1460.5 714.823 1462.49 Q713.18 1464.45 710.147 1465.22 Z" fill="#000000" fill-rule="evenodd" fill-opacity="1" /><path clip-path="url(#clip770)" d="M1105.74 1453.37 L1093.94 1471.81 L1105.74 1471.81 L1105.74 1453.37 M1104.51 1449.29 L1110.39 1449.29 L1110.39 1471.81 L1115.33 1471.81 L1115.33 1475.7 L1110.39 1475.7 L1110.39 1483.85 L1105.74 1483.85 L1105.74 1475.7 L1090.14 1475.7 L1090.14 1471.19 L1104.51 1449.29 Z" fill="#000000" fill-rule="evenodd" fill-opacity="1" /><path clip-path="url(#clip770)" d="M1489.84 1449.29 L1508.2 1449.29 L1508.2 1453.23 L1494.13 1453.23 L1494.13 1461.7 Q1495.14 1461.35 1496.16 1461.19 Q1497.18 1461 1498.2 1461 Q1503.99 1461 1507.37 1464.18 Q1510.75 1467.35 1510.75 1472.76 Q1510.75 1478.34 1507.27 1481.44 Q1503.8 1484.52 1497.48 1484.52 Q1495.31 1484.52 1493.04 1484.15 Q1490.79 1483.78 1488.38 1483.04 L1488.38 1478.34 Q1490.47 1479.48 1492.69 1480.03 Q1494.91 1480.59 1497.39 1480.59 Q1501.39 1480.59 1503.73 1478.48 Q1506.07 1476.38 1506.07 1472.76 Q1506.07 1469.15 1503.73 1467.05 Q1501.39 1464.94 1497.39 1464.94 Q1495.51 1464.94 1493.64 1465.36 Q1491.79 1465.77 1489.84 1466.65 L1489.84 1449.29 Z" fill="#000000" fill-rule="evenodd" fill-opacity="1" /><path clip-path="url(#clip770)" d="M1896.8 1464.71 Q1893.66 1464.71 1891.8 1466.86 Q1889.97 1469.01 1889.97 1472.76 Q1889.97 1476.49 1891.8 1478.67 Q1893.66 1480.82 1896.8 1480.82 Q1899.95 1480.82 1901.78 1478.67 Q1903.63 1476.49 1903.63 1472.76 Q1903.63 1469.01 1901.78 1466.86 Q1899.95 1464.71 1896.8 1464.71 M1906.09 1450.06 L1906.09 1454.31 Q1904.33 1453.48 1902.52 1453.04 Q1900.74 1452.6 1898.98 1452.6 Q1894.35 1452.6 1891.9 1455.73 Q1889.47 1458.85 1889.12 1465.17 Q1890.48 1463.16 1892.54 1462.09 Q1894.6 1461 1897.08 1461 Q1902.29 1461 1905.3 1464.18 Q1908.33 1467.32 1908.33 1472.76 Q1908.33 1478.09 1905.18 1481.31 Q1902.03 1484.52 1896.8 1484.52 Q1890.81 1484.52 1887.64 1479.94 Q1884.47 1475.33 1884.47 1466.61 Q1884.47 1458.41 1888.35 1453.55 Q1892.24 1448.67 1898.79 1448.67 Q1900.55 1448.67 1902.34 1449.01 Q1904.14 1449.36 1906.09 1450.06 Z" fill="#000000" fill-rule="evenodd" fill-opacity="1" /><path clip-path="url(#clip770)" d="M2282.12 1449.29 L2304.34 1449.29 L2304.34 1451.28 L2291.8 1483.85 L2286.91 1483.85 L2298.72 1453.23 L2282.12 1453.23 L2282.12 1449.29 Z" fill="#000000" fill-rule="evenodd" fill-opacity="1" /><path clip-path="url(#clip770)" d="M1087.26 1520.52 L1095.92 1520.52 L1116.99 1560.28 L1116.99 1520.52 L1123.23 1520.52 L1123.23 1568.04 L1114.57 1568.04 L1093.5 1528.29 L1093.5 1568.04 L1087.26 1568.04 L1087.26 1520.52 Z" fill="#000000" fill-rule="evenodd" fill-opacity="1" /><path clip-path="url(#clip770)" d="M1149.58 1536.5 Q1144.87 1536.5 1142.13 1540.19 Q1139.4 1543.85 1139.4 1550.25 Q1139.4 1556.65 1142.1 1560.34 Q1144.84 1564 1149.58 1564 Q1154.26 1564 1157 1560.31 Q1159.73 1556.62 1159.73 1550.25 Q1159.73 1543.92 1157 1540.23 Q1154.26 1536.5 1149.58 1536.5 M1149.58 1531.54 Q1157.22 1531.54 1161.58 1536.5 Q1165.94 1541.47 1165.94 1550.25 Q1165.94 1559 1161.58 1564 Q1157.22 1568.97 1149.58 1568.97 Q1141.91 1568.97 1137.55 1564 Q1133.22 1559 1133.22 1550.25 Q1133.22 1541.47 1137.55 1536.5 Q1141.91 1531.54 1149.58 1531.54 Z" fill="#000000" fill-rule="evenodd" fill-opacity="1" /><path clip-path="url(#clip770)" d="M1175.33 1559.96 L1182.05 1559.96 L1182.05 1568.04 L1175.33 1568.04 L1175.33 1559.96 Z" fill="#000000" fill-rule="evenodd" fill-opacity="1" /><path clip-path="url(#clip770)" d="M1229.76 1536.5 Q1225.05 1536.5 1222.31 1540.19 Q1219.57 1543.85 1219.57 1550.25 Q1219.57 1556.65 1222.28 1560.34 Q1225.02 1564 1229.76 1564 Q1234.44 1564 1237.17 1560.31 Q1239.91 1556.62 1239.91 1550.25 Q1239.91 1543.92 1237.17 1540.23 Q1234.44 1536.5 1229.76 1536.5 M1229.76 1531.54 Q1237.4 1531.54 1241.76 1536.5 Q1246.12 1541.47 1246.12 1550.25 Q1246.12 1559 1241.76 1564 Q1237.4 1568.97 1229.76 1568.97 Q1222.09 1568.97 1217.73 1564 Q1213.4 1559 1213.4 1550.25 Q1213.4 1541.47 1217.73 1536.5 Q1222.09 1531.54 1229.76 1531.54 Z" fill="#000000" fill-rule="evenodd" fill-opacity="1" /><path clip-path="url(#clip770)" d="M1273.87 1518.52 L1273.87 1523.39 L1268.27 1523.39 Q1265.12 1523.39 1263.88 1524.66 Q1262.67 1525.93 1262.67 1529.24 L1262.67 1532.4 L1272.31 1532.4 L1272.31 1536.95 L1262.67 1536.95 L1262.67 1568.04 L1256.78 1568.04 L1256.78 1536.95 L1251.18 1536.95 L1251.18 1532.4 L1256.78 1532.4 L1256.78 1529.91 Q1256.78 1523.96 1259.55 1521.26 Q1262.32 1518.52 1268.33 1518.52 L1273.87 1518.52 Z" fill="#000000" fill-rule="evenodd" fill-opacity="1" /><path clip-path="url(#clip770)" d="M1325.15 1533.76 L1325.15 1539.24 Q1322.67 1537.87 1320.15 1537.2 Q1317.67 1536.5 1315.12 1536.5 Q1309.42 1536.5 1306.27 1540.13 Q1303.12 1543.73 1303.12 1550.25 Q1303.12 1556.78 1306.27 1560.4 Q1309.42 1564 1315.12 1564 Q1317.67 1564 1320.15 1563.33 Q1322.67 1562.63 1325.15 1561.26 L1325.15 1566.68 Q1322.7 1567.82 1320.06 1568.39 Q1317.45 1568.97 1314.49 1568.97 Q1306.43 1568.97 1301.69 1563.91 Q1296.95 1558.85 1296.95 1550.25 Q1296.95 1541.53 1301.72 1536.53 Q1306.53 1531.54 1314.87 1531.54 Q1317.57 1531.54 1320.15 1532.11 Q1322.73 1532.65 1325.15 1533.76 Z" fill="#000000" fill-rule="evenodd" fill-opacity="1" /><path clip-path="url(#clip770)" d="M1335.33 1518.52 L1341.19 1518.52 L1341.19 1568.04 L1335.33 1568.04 L1335.33 1518.52 Z" fill="#000000" fill-rule="evenodd" fill-opacity="1" /><path clip-path="url(#clip770)" d="M1352.84 1553.98 L1352.84 1532.4 L1358.69 1532.4 L1358.69 1553.75 Q1358.69 1558.81 1360.67 1561.36 Q1362.64 1563.87 1366.59 1563.87 Q1371.33 1563.87 1374.07 1560.85 Q1376.84 1557.83 1376.84 1552.61 L1376.84 1532.4 L1382.69 1532.4 L1382.69 1568.04 L1376.84 1568.04 L1376.84 1562.57 Q1374.7 1565.82 1371.87 1567.41 Q1369.07 1568.97 1365.35 1568.97 Q1359.2 1568.97 1356.02 1565.15 Q1352.84 1561.33 1352.84 1553.98 M1367.58 1531.54 L1367.58 1531.54 Z" fill="#000000" fill-rule="evenodd" fill-opacity="1" /><path clip-path="url(#clip770)" d="M1417.48 1533.45 L1417.48 1538.98 Q1415 1537.71 1412.33 1537.07 Q1409.65 1536.44 1406.79 1536.44 Q1402.43 1536.44 1400.23 1537.77 Q1398.07 1539.11 1398.07 1541.79 Q1398.07 1543.82 1399.63 1545 Q1401.19 1546.15 1405.9 1547.2 L1407.9 1547.64 Q1414.14 1548.98 1416.75 1551.43 Q1419.39 1553.85 1419.39 1558.21 Q1419.39 1563.17 1415.45 1566.07 Q1411.53 1568.97 1404.66 1568.97 Q1401.79 1568.97 1398.67 1568.39 Q1395.58 1567.85 1392.15 1566.74 L1392.15 1560.69 Q1395.39 1562.38 1398.54 1563.24 Q1401.7 1564.07 1404.78 1564.07 Q1408.92 1564.07 1411.15 1562.66 Q1413.38 1561.23 1413.38 1558.65 Q1413.38 1556.27 1411.75 1554.99 Q1410.16 1553.72 1404.72 1552.54 L1402.68 1552.07 Q1397.24 1550.92 1394.82 1548.56 Q1392.4 1546.18 1392.4 1542.04 Q1392.4 1537.01 1395.97 1534.27 Q1399.53 1531.54 1406.09 1531.54 Q1409.33 1531.54 1412.2 1532.01 Q1415.06 1532.49 1417.48 1533.45 Z" fill="#000000" fill-rule="evenodd" fill-opacity="1" /><path clip-path="url(#clip770)" d="M1434.51 1522.27 L1434.51 1532.4 L1446.57 1532.4 L1446.57 1536.95 L1434.51 1536.95 L1434.51 1556.3 Q1434.51 1560.66 1435.69 1561.9 Q1436.9 1563.14 1440.56 1563.14 L1446.57 1563.14 L1446.57 1568.04 L1440.56 1568.04 Q1433.78 1568.04 1431.2 1565.53 Q1428.62 1562.98 1428.62 1556.3 L1428.62 1536.95 L1424.33 1536.95 L1424.33 1532.4 L1428.62 1532.4 L1428.62 1522.27 L1434.51 1522.27 Z" fill="#000000" fill-rule="evenodd" fill-opacity="1" /><path clip-path="url(#clip770)" d="M1484.77 1548.76 L1484.77 1551.62 L1457.84 1551.62 Q1458.22 1557.67 1461.47 1560.85 Q1464.75 1564 1470.57 1564 Q1473.95 1564 1477.1 1563.17 Q1480.28 1562.35 1483.4 1560.69 L1483.4 1566.23 Q1480.25 1567.57 1476.94 1568.27 Q1473.63 1568.97 1470.22 1568.97 Q1461.69 1568.97 1456.7 1564 Q1451.73 1559.04 1451.73 1550.57 Q1451.73 1541.82 1456.44 1536.69 Q1461.18 1531.54 1469.2 1531.54 Q1476.4 1531.54 1480.57 1536.18 Q1484.77 1540.8 1484.77 1548.76 M1478.91 1547.04 Q1478.85 1542.23 1476.21 1539.37 Q1473.6 1536.5 1469.27 1536.5 Q1464.37 1536.5 1461.41 1539.27 Q1458.48 1542.04 1458.03 1547.07 L1478.91 1547.04 Z" fill="#000000" fill-rule="evenodd" fill-opacity="1" /><path clip-path="url(#clip770)" d="M1515.04 1537.87 Q1514.05 1537.3 1512.87 1537.04 Q1511.73 1536.76 1510.33 1536.76 Q1505.36 1536.76 1502.69 1540 Q1500.05 1543.22 1500.05 1549.27 L1500.05 1568.04 L1494.16 1568.04 L1494.16 1532.4 L1500.05 1532.4 L1500.05 1537.93 Q1501.89 1534.69 1504.85 1533.13 Q1507.81 1531.54 1512.04 1531.54 Q1512.65 1531.54 1513.38 1531.63 Q1514.11 1531.7 1515 1531.85 L1515.04 1537.87 Z" fill="#000000" fill-rule="evenodd" fill-opacity="1" /><polyline clip-path="url(#clip772)" style="stroke:#000000; stroke-linecap:butt; stroke-linejoin:round; stroke-width:2; stroke-opacity:0.1; fill:none" points="
  249.542,1305.17 2352.76,1305.17 
  "/>
<polyline clip-path="url(#clip772)" style="stroke:#000000; stroke-linecap:butt; stroke-linejoin:round; stroke-width:2; stroke-opacity:0.1; fill:none" points="
  249.542,1081.23 2352.76,1081.23 
  "/>
<polyline clip-path="url(#clip772)" style="stroke:#000000; stroke-linecap:butt; stroke-linejoin:round; stroke-width:2; stroke-opacity:0.1; fill:none" points="
  249.542,857.297 2352.76,857.297 
  "/>
<polyline clip-path="url(#clip772)" style="stroke:#000000; stroke-linecap:butt; stroke-linejoin:round; stroke-width:2; stroke-opacity:0.1; fill:none" points="
  249.542,633.361 2352.76,633.361 
  "/>
<polyline clip-path="url(#clip772)" style="stroke:#000000; stroke-linecap:butt; stroke-linejoin:round; stroke-width:2; stroke-opacity:0.1; fill:none" points="
  249.542,409.425 2352.76,409.425 
  "/>
<polyline clip-path="url(#clip772)" style="stroke:#000000; stroke-linecap:butt; stroke-linejoin:round; stroke-width:2; stroke-opacity:0.1; fill:none" points="
  249.542,185.488 2352.76,185.488 
  "/>
<polyline clip-path="url(#clip770)" style="stroke:#000000; stroke-linecap:butt; stroke-linejoin:round; stroke-width:4; stroke-opacity:1; fill:none" points="
  249.542,1423.18 249.542,47.2441 
  "/>
<polyline clip-path="url(#clip770)" style="stroke:#000000; stroke-linecap:butt; stroke-linejoin:round; stroke-width:4; stroke-opacity:1; fill:none" points="
  249.542,1305.17 268.44,1305.17 
  "/>
<polyline clip-path="url(#clip770)" style="stroke:#000000; stroke-linecap:butt; stroke-linejoin:round; stroke-width:4; stroke-opacity:1; fill:none" points="
  249.542,1081.23 268.44,1081.23 
  "/>
<polyline clip-path="url(#clip770)" style="stroke:#000000; stroke-linecap:butt; stroke-linejoin:round; stroke-width:4; stroke-opacity:1; fill:none" points="
  249.542,857.297 268.44,857.297 
  "/>
<polyline clip-path="url(#clip770)" style="stroke:#000000; stroke-linecap:butt; stroke-linejoin:round; stroke-width:4; stroke-opacity:1; fill:none" points="
  249.542,633.361 268.44,633.361 
  "/>
<polyline clip-path="url(#clip770)" style="stroke:#000000; stroke-linecap:butt; stroke-linejoin:round; stroke-width:4; stroke-opacity:1; fill:none" points="
  249.542,409.425 268.44,409.425 
  "/>
<polyline clip-path="url(#clip770)" style="stroke:#000000; stroke-linecap:butt; stroke-linejoin:round; stroke-width:4; stroke-opacity:1; fill:none" points="
  249.542,185.488 268.44,185.488 
  "/>
<path clip-path="url(#clip770)" d="M127.2 1290.97 Q123.589 1290.97 121.76 1294.53 Q119.955 1298.07 119.955 1305.2 Q119.955 1312.31 121.76 1315.87 Q123.589 1319.42 127.2 1319.42 Q130.834 1319.42 132.64 1315.87 Q134.468 1312.31 134.468 1305.2 Q134.468 1298.07 132.64 1294.53 Q130.834 1290.97 127.2 1290.97 M127.2 1287.26 Q133.01 1287.26 136.066 1291.87 Q139.144 1296.45 139.144 1305.2 Q139.144 1313.93 136.066 1318.54 Q133.01 1323.12 127.2 1323.12 Q121.39 1323.12 118.311 1318.54 Q115.256 1313.93 115.256 1305.2 Q115.256 1296.45 118.311 1291.87 Q121.39 1287.26 127.2 1287.26 Z" fill="#000000" fill-rule="evenodd" fill-opacity="1" /><path clip-path="url(#clip770)" d="M147.362 1316.57 L152.246 1316.57 L152.246 1322.45 L147.362 1322.45 L147.362 1316.57 Z" fill="#000000" fill-rule="evenodd" fill-opacity="1" /><path clip-path="url(#clip770)" d="M175.278 1291.96 L163.473 1310.41 L175.278 1310.41 L175.278 1291.96 M174.052 1287.89 L179.931 1287.89 L179.931 1310.41 L184.862 1310.41 L184.862 1314.3 L179.931 1314.3 L179.931 1322.45 L175.278 1322.45 L175.278 1314.3 L159.677 1314.3 L159.677 1309.79 L174.052 1287.89 Z" fill="#000000" fill-rule="evenodd" fill-opacity="1" /><path clip-path="url(#clip770)" d="M192.639 1287.89 L210.996 1287.89 L210.996 1291.82 L196.922 1291.82 L196.922 1300.3 Q197.94 1299.95 198.959 1299.79 Q199.977 1299.6 200.996 1299.6 Q206.783 1299.6 210.162 1302.77 Q213.542 1305.94 213.542 1311.36 Q213.542 1316.94 210.07 1320.04 Q206.598 1323.12 200.278 1323.12 Q198.102 1323.12 195.834 1322.75 Q193.588 1322.38 191.181 1321.64 L191.181 1316.94 Q193.264 1318.07 195.487 1318.63 Q197.709 1319.18 200.186 1319.18 Q204.19 1319.18 206.528 1317.08 Q208.866 1314.97 208.866 1311.36 Q208.866 1307.75 206.528 1305.64 Q204.19 1303.54 200.186 1303.54 Q198.311 1303.54 196.436 1303.95 Q194.584 1304.37 192.639 1305.25 L192.639 1287.89 Z" fill="#000000" fill-rule="evenodd" fill-opacity="1" /><path clip-path="url(#clip770)" d="M126.205 1067.03 Q122.593 1067.03 120.765 1070.6 Q118.959 1074.14 118.959 1081.27 Q118.959 1088.37 120.765 1091.94 Q122.593 1095.48 126.205 1095.48 Q129.839 1095.48 131.644 1091.94 Q133.473 1088.37 133.473 1081.27 Q133.473 1074.14 131.644 1070.6 Q129.839 1067.03 126.205 1067.03 M126.205 1063.33 Q132.015 1063.33 135.07 1067.93 Q138.149 1072.52 138.149 1081.27 Q138.149 1089.99 135.07 1094.6 Q132.015 1099.18 126.205 1099.18 Q120.394 1099.18 117.316 1094.6 Q114.26 1089.99 114.26 1081.27 Q114.26 1072.52 117.316 1067.93 Q120.394 1063.33 126.205 1063.33 Z" fill="#000000" fill-rule="evenodd" fill-opacity="1" /><path clip-path="url(#clip770)" d="M146.366 1092.63 L151.251 1092.63 L151.251 1098.51 L146.366 1098.51 L146.366 1092.63 Z" fill="#000000" fill-rule="evenodd" fill-opacity="1" /><path clip-path="url(#clip770)" d="M161.482 1063.95 L179.839 1063.95 L179.839 1067.89 L165.765 1067.89 L165.765 1076.36 Q166.783 1076.01 167.802 1075.85 Q168.82 1075.67 169.839 1075.67 Q175.626 1075.67 179.005 1078.84 Q182.385 1082.01 182.385 1087.42 Q182.385 1093 178.913 1096.11 Q175.44 1099.18 169.121 1099.18 Q166.945 1099.18 164.677 1098.81 Q162.431 1098.44 160.024 1097.7 L160.024 1093 Q162.107 1094.14 164.329 1094.69 Q166.552 1095.25 169.028 1095.25 Q173.033 1095.25 175.371 1093.14 Q177.709 1091.04 177.709 1087.42 Q177.709 1083.81 175.371 1081.71 Q173.033 1079.6 169.028 1079.6 Q167.153 1079.6 165.278 1080.02 Q163.427 1080.43 161.482 1081.31 L161.482 1063.95 Z" fill="#000000" fill-rule="evenodd" fill-opacity="1" /><path clip-path="url(#clip770)" d="M201.598 1067.03 Q197.987 1067.03 196.158 1070.6 Q194.352 1074.14 194.352 1081.27 Q194.352 1088.37 196.158 1091.94 Q197.987 1095.48 201.598 1095.48 Q205.232 1095.48 207.037 1091.94 Q208.866 1088.37 208.866 1081.27 Q208.866 1074.14 207.037 1070.6 Q205.232 1067.03 201.598 1067.03 M201.598 1063.33 Q207.408 1063.33 210.463 1067.93 Q213.542 1072.52 213.542 1081.27 Q213.542 1089.99 210.463 1094.6 Q207.408 1099.18 201.598 1099.18 Q195.787 1099.18 192.709 1094.6 Q189.653 1089.99 189.653 1081.27 Q189.653 1072.52 192.709 1067.93 Q195.787 1063.33 201.598 1063.33 Z" fill="#000000" fill-rule="evenodd" fill-opacity="1" /><path clip-path="url(#clip770)" d="M127.2 843.095 Q123.589 843.095 121.76 846.66 Q119.955 850.202 119.955 857.331 Q119.955 864.438 121.76 868.003 Q123.589 871.544 127.2 871.544 Q130.834 871.544 132.64 868.003 Q134.468 864.438 134.468 857.331 Q134.468 850.202 132.64 846.66 Q130.834 843.095 127.2 843.095 M127.2 839.392 Q133.01 839.392 136.066 843.998 Q139.144 848.581 139.144 857.331 Q139.144 866.058 136.066 870.665 Q133.01 875.248 127.2 875.248 Q121.39 875.248 118.311 870.665 Q115.256 866.058 115.256 857.331 Q115.256 848.581 118.311 843.998 Q121.39 839.392 127.2 839.392 Z" fill="#000000" fill-rule="evenodd" fill-opacity="1" /><path clip-path="url(#clip770)" d="M147.362 868.697 L152.246 868.697 L152.246 874.577 L147.362 874.577 L147.362 868.697 Z" fill="#000000" fill-rule="evenodd" fill-opacity="1" /><path clip-path="url(#clip770)" d="M162.477 840.017 L180.834 840.017 L180.834 843.952 L166.76 843.952 L166.76 852.424 Q167.778 852.077 168.797 851.915 Q169.815 851.73 170.834 851.73 Q176.621 851.73 180.001 854.901 Q183.38 858.072 183.38 863.489 Q183.38 869.067 179.908 872.169 Q176.436 875.248 170.116 875.248 Q167.94 875.248 165.672 874.878 Q163.427 874.507 161.019 873.766 L161.019 869.067 Q163.102 870.202 165.325 870.757 Q167.547 871.313 170.024 871.313 Q174.028 871.313 176.366 869.206 Q178.704 867.1 178.704 863.489 Q178.704 859.878 176.366 857.771 Q174.028 855.665 170.024 855.665 Q168.149 855.665 166.274 856.081 Q164.422 856.498 162.477 857.378 L162.477 840.017 Z" fill="#000000" fill-rule="evenodd" fill-opacity="1" /><path clip-path="url(#clip770)" d="M192.639 840.017 L210.996 840.017 L210.996 843.952 L196.922 843.952 L196.922 852.424 Q197.94 852.077 198.959 851.915 Q199.977 851.73 200.996 851.73 Q206.783 851.73 210.162 854.901 Q213.542 858.072 213.542 863.489 Q213.542 869.067 210.07 872.169 Q206.598 875.248 200.278 875.248 Q198.102 875.248 195.834 874.878 Q193.588 874.507 191.181 873.766 L191.181 869.067 Q193.264 870.202 195.487 870.757 Q197.709 871.313 200.186 871.313 Q204.19 871.313 206.528 869.206 Q208.866 867.1 208.866 863.489 Q208.866 859.878 206.528 857.771 Q204.19 855.665 200.186 855.665 Q198.311 855.665 196.436 856.081 Q194.584 856.498 192.639 857.378 L192.639 840.017 Z" fill="#000000" fill-rule="evenodd" fill-opacity="1" /><path clip-path="url(#clip770)" d="M126.205 619.159 Q122.593 619.159 120.765 622.724 Q118.959 626.266 118.959 633.395 Q118.959 640.502 120.765 644.067 Q122.593 647.608 126.205 647.608 Q129.839 647.608 131.644 644.067 Q133.473 640.502 133.473 633.395 Q133.473 626.266 131.644 622.724 Q129.839 619.159 126.205 619.159 M126.205 615.456 Q132.015 615.456 135.07 620.062 Q138.149 624.645 138.149 633.395 Q138.149 642.122 135.07 646.729 Q132.015 651.312 126.205 651.312 Q120.394 651.312 117.316 646.729 Q114.26 642.122 114.26 633.395 Q114.26 624.645 117.316 620.062 Q120.394 615.456 126.205 615.456 Z" fill="#000000" fill-rule="evenodd" fill-opacity="1" /><path clip-path="url(#clip770)" d="M146.366 644.761 L151.251 644.761 L151.251 650.641 L146.366 650.641 L146.366 644.761 Z" fill="#000000" fill-rule="evenodd" fill-opacity="1" /><path clip-path="url(#clip770)" d="M172.014 631.497 Q168.866 631.497 167.015 633.65 Q165.186 635.803 165.186 639.553 Q165.186 643.28 167.015 645.455 Q168.866 647.608 172.014 647.608 Q175.163 647.608 176.991 645.455 Q178.843 643.28 178.843 639.553 Q178.843 635.803 176.991 633.65 Q175.163 631.497 172.014 631.497 M181.297 616.844 L181.297 621.104 Q179.538 620.27 177.732 619.831 Q175.95 619.391 174.19 619.391 Q169.561 619.391 167.107 622.516 Q164.677 625.641 164.329 631.96 Q165.695 629.946 167.755 628.881 Q169.815 627.793 172.292 627.793 Q177.501 627.793 180.51 630.965 Q183.542 634.113 183.542 639.553 Q183.542 644.877 180.394 648.094 Q177.246 651.312 172.014 651.312 Q166.019 651.312 162.848 646.729 Q159.677 642.122 159.677 633.395 Q159.677 625.201 163.565 620.34 Q167.454 615.456 174.005 615.456 Q175.764 615.456 177.547 615.803 Q179.352 616.15 181.297 616.844 Z" fill="#000000" fill-rule="evenodd" fill-opacity="1" /><path clip-path="url(#clip770)" d="M201.598 619.159 Q197.987 619.159 196.158 622.724 Q194.352 626.266 194.352 633.395 Q194.352 640.502 196.158 644.067 Q197.987 647.608 201.598 647.608 Q205.232 647.608 207.037 644.067 Q208.866 640.502 208.866 633.395 Q208.866 626.266 207.037 622.724 Q205.232 619.159 201.598 619.159 M201.598 615.456 Q207.408 615.456 210.463 620.062 Q213.542 624.645 213.542 633.395 Q213.542 642.122 210.463 646.729 Q207.408 651.312 201.598 651.312 Q195.787 651.312 192.709 646.729 Q189.653 642.122 189.653 633.395 Q189.653 624.645 192.709 620.062 Q195.787 615.456 201.598 615.456 Z" fill="#000000" fill-rule="evenodd" fill-opacity="1" /><path clip-path="url(#clip770)" d="M127.2 395.223 Q123.589 395.223 121.76 398.788 Q119.955 402.33 119.955 409.459 Q119.955 416.566 121.76 420.13 Q123.589 423.672 127.2 423.672 Q130.834 423.672 132.64 420.13 Q134.468 416.566 134.468 409.459 Q134.468 402.33 132.64 398.788 Q130.834 395.223 127.2 395.223 M127.2 391.52 Q133.01 391.52 136.066 396.126 Q139.144 400.709 139.144 409.459 Q139.144 418.186 136.066 422.793 Q133.01 427.376 127.2 427.376 Q121.39 427.376 118.311 422.793 Q115.256 418.186 115.256 409.459 Q115.256 400.709 118.311 396.126 Q121.39 391.52 127.2 391.52 Z" fill="#000000" fill-rule="evenodd" fill-opacity="1" /><path clip-path="url(#clip770)" d="M147.362 420.825 L152.246 420.825 L152.246 426.705 L147.362 426.705 L147.362 420.825 Z" fill="#000000" fill-rule="evenodd" fill-opacity="1" /><path clip-path="url(#clip770)" d="M173.01 407.561 Q169.862 407.561 168.01 409.714 Q166.181 411.867 166.181 415.617 Q166.181 419.343 168.01 421.519 Q169.862 423.672 173.01 423.672 Q176.158 423.672 177.987 421.519 Q179.839 419.343 179.839 415.617 Q179.839 411.867 177.987 409.714 Q176.158 407.561 173.01 407.561 M182.292 392.908 L182.292 397.168 Q180.533 396.334 178.727 395.894 Q176.945 395.455 175.186 395.455 Q170.556 395.455 168.102 398.58 Q165.672 401.705 165.325 408.024 Q166.69 406.01 168.751 404.945 Q170.811 403.857 173.288 403.857 Q178.496 403.857 181.505 407.029 Q184.538 410.177 184.538 415.617 Q184.538 420.941 181.389 424.158 Q178.241 427.376 173.01 427.376 Q167.015 427.376 163.843 422.793 Q160.672 418.186 160.672 409.459 Q160.672 401.265 164.561 396.404 Q168.45 391.52 175.001 391.52 Q176.76 391.52 178.542 391.867 Q180.348 392.214 182.292 392.908 Z" fill="#000000" fill-rule="evenodd" fill-opacity="1" /><path clip-path="url(#clip770)" d="M192.639 392.145 L210.996 392.145 L210.996 396.08 L196.922 396.08 L196.922 404.552 Q197.94 404.205 198.959 404.043 Q199.977 403.857 200.996 403.857 Q206.783 403.857 210.162 407.029 Q213.542 410.2 213.542 415.617 Q213.542 421.195 210.07 424.297 Q206.598 427.376 200.278 427.376 Q198.102 427.376 195.834 427.005 Q193.588 426.635 191.181 425.894 L191.181 421.195 Q193.264 422.33 195.487 422.885 Q197.709 423.441 200.186 423.441 Q204.19 423.441 206.528 421.334 Q208.866 419.228 208.866 415.617 Q208.866 412.006 206.528 409.899 Q204.19 407.793 200.186 407.793 Q198.311 407.793 196.436 408.209 Q194.584 408.626 192.639 409.506 L192.639 392.145 Z" fill="#000000" fill-rule="evenodd" fill-opacity="1" /><path clip-path="url(#clip770)" d="M126.205 171.287 Q122.593 171.287 120.765 174.852 Q118.959 178.394 118.959 185.523 Q118.959 192.63 120.765 196.194 Q122.593 199.736 126.205 199.736 Q129.839 199.736 131.644 196.194 Q133.473 192.63 133.473 185.523 Q133.473 178.394 131.644 174.852 Q129.839 171.287 126.205 171.287 M126.205 167.583 Q132.015 167.583 135.07 172.19 Q138.149 176.773 138.149 185.523 Q138.149 194.25 135.07 198.856 Q132.015 203.44 126.205 203.44 Q120.394 203.44 117.316 198.856 Q114.26 194.25 114.26 185.523 Q114.26 176.773 117.316 172.19 Q120.394 167.583 126.205 167.583 Z" fill="#000000" fill-rule="evenodd" fill-opacity="1" /><path clip-path="url(#clip770)" d="M146.366 196.889 L151.251 196.889 L151.251 202.768 L146.366 202.768 L146.366 196.889 Z" fill="#000000" fill-rule="evenodd" fill-opacity="1" /><path clip-path="url(#clip770)" d="M160.255 168.208 L182.477 168.208 L182.477 170.199 L169.931 202.768 L165.047 202.768 L176.852 172.144 L160.255 172.144 L160.255 168.208 Z" fill="#000000" fill-rule="evenodd" fill-opacity="1" /><path clip-path="url(#clip770)" d="M201.598 171.287 Q197.987 171.287 196.158 174.852 Q194.352 178.394 194.352 185.523 Q194.352 192.63 196.158 196.194 Q197.987 199.736 201.598 199.736 Q205.232 199.736 207.037 196.194 Q208.866 192.63 208.866 185.523 Q208.866 178.394 207.037 174.852 Q205.232 171.287 201.598 171.287 M201.598 167.583 Q207.408 167.583 210.463 172.19 Q213.542 176.773 213.542 185.523 Q213.542 194.25 210.463 198.856 Q207.408 203.44 201.598 203.44 Q195.787 203.44 192.709 198.856 Q189.653 194.25 189.653 185.523 Q189.653 176.773 192.709 172.19 Q195.787 167.583 201.598 167.583 Z" fill="#000000" fill-rule="evenodd" fill-opacity="1" /><path clip-path="url(#clip770)" d="M18.0438 965.619 L24.314 965.619 Q22.5634 969.279 21.704 972.526 Q20.8447 975.772 20.8447 978.796 Q20.8447 984.047 22.8817 986.912 Q24.9187 989.745 28.6745 989.745 Q31.8255 989.745 33.4488 987.867 Q35.0402 985.957 36.0269 980.674 L36.8226 976.791 Q38.1912 969.597 41.6605 966.192 Q45.098 962.754 50.8908 962.754 Q57.7976 962.754 61.3624 967.401 Q64.9272 972.016 64.9272 980.96 Q64.9272 984.334 64.1633 988.153 Q63.3994 991.941 61.9035 996.015 L55.2831 996.015 Q57.4793 992.1 58.5933 988.344 Q59.7073 984.589 59.7073 980.96 Q59.7073 975.454 57.543 972.462 Q55.3786 969.47 51.3682 969.47 Q47.8671 969.47 45.8937 971.634 Q43.9204 973.767 42.9337 978.668 L42.1698 982.583 Q40.7375 989.777 37.682 992.991 Q34.6264 996.206 29.1837 996.206 Q22.8817 996.206 19.2532 991.782 Q15.6248 987.326 15.6248 979.528 Q15.6248 976.186 16.2295 972.716 Q16.8343 969.247 18.0438 965.619 Z" fill="#000000" fill-rule="evenodd" fill-opacity="1" /><path clip-path="url(#clip770)" d="M28.3562 952.983 L28.3562 947.126 L64.0042 947.126 L64.0042 952.983 L28.3562 952.983 M14.479 952.983 L14.479 947.126 L21.895 947.126 L21.895 952.983 L14.479 952.983 Z" fill="#000000" fill-rule="evenodd" fill-opacity="1" /><path clip-path="url(#clip770)" d="M14.479 934.872 L14.479 929.016 L64.0042 929.016 L64.0042 934.872 L14.479 934.872 Z" fill="#000000" fill-rule="evenodd" fill-opacity="1" /><path clip-path="url(#clip770)" d="M42.4881 887.13 L64.0042 887.13 L64.0042 892.986 L42.679 892.986 Q37.6183 892.986 35.1038 894.959 Q32.5894 896.933 32.5894 900.879 Q32.5894 905.622 35.6131 908.359 Q38.6368 911.096 43.8567 911.096 L64.0042 911.096 L64.0042 916.985 L14.479 916.985 L14.479 911.096 L33.8944 911.096 Q30.6797 908.996 29.0883 906.163 Q27.4968 903.298 27.4968 899.575 Q27.4968 893.432 31.3163 890.281 Q35.1038 887.13 42.4881 887.13 Z" fill="#000000" fill-rule="evenodd" fill-opacity="1" /><path clip-path="url(#clip770)" d="M32.4621 861.635 Q32.4621 866.346 36.1542 869.083 Q39.8145 871.82 46.212 871.82 Q52.6095 871.82 56.3017 869.115 Q59.9619 866.377 59.9619 861.635 Q59.9619 856.956 56.2698 854.219 Q52.5777 851.482 46.212 851.482 Q39.8781 851.482 36.186 854.219 Q32.4621 856.956 32.4621 861.635 M27.4968 861.635 Q27.4968 853.996 32.4621 849.636 Q37.4273 845.275 46.212 845.275 Q54.9649 845.275 59.9619 849.636 Q64.9272 853.996 64.9272 861.635 Q64.9272 869.306 59.9619 873.666 Q54.9649 877.995 46.212 877.995 Q37.4273 877.995 32.4621 873.666 Q27.4968 869.306 27.4968 861.635 Z" fill="#000000" fill-rule="evenodd" fill-opacity="1" /><path clip-path="url(#clip770)" d="M49.9359 836.172 L28.3562 836.172 L28.3562 830.316 L49.7131 830.316 Q54.7739 830.316 57.3202 828.342 Q59.8346 826.369 59.8346 822.422 Q59.8346 817.68 56.8109 814.942 Q53.7872 812.173 48.5673 812.173 L28.3562 812.173 L28.3562 806.317 L64.0042 806.317 L64.0042 812.173 L58.5296 812.173 Q61.7762 814.306 63.3676 817.139 Q64.9272 819.94 64.9272 823.663 Q64.9272 829.806 61.1078 832.989 Q57.2883 836.172 49.9359 836.172 M27.4968 821.435 L27.4968 821.435 Z" fill="#000000" fill-rule="evenodd" fill-opacity="1" /><path clip-path="url(#clip770)" d="M44.7161 763.762 L47.5806 763.762 L47.5806 790.689 Q53.6281 790.307 56.8109 787.061 Q59.9619 783.782 59.9619 777.958 Q59.9619 774.584 59.1344 771.433 Q58.3069 768.25 56.6518 765.131 L62.1899 765.131 Q63.5267 768.282 64.227 771.592 Q64.9272 774.902 64.9272 778.308 Q64.9272 786.838 59.9619 791.835 Q54.9967 796.8 46.5303 796.8 Q37.7774 796.8 32.6531 792.09 Q27.4968 787.347 27.4968 779.326 Q27.4968 772.133 32.1438 767.964 Q36.7589 763.762 44.7161 763.762 M42.9973 769.619 Q38.1912 769.682 35.3266 772.324 Q32.4621 774.934 32.4621 779.263 Q32.4621 784.164 35.2312 787.124 Q38.0002 790.053 43.0292 790.498 L42.9973 769.619 Z" fill="#000000" fill-rule="evenodd" fill-opacity="1" /><path clip-path="url(#clip770)" d="M18.2347 748.357 L28.3562 748.357 L28.3562 736.294 L32.9077 736.294 L32.9077 748.357 L52.2594 748.357 Q56.6199 748.357 57.8613 747.179 Q59.1026 745.97 59.1026 742.31 L59.1026 736.294 L64.0042 736.294 L64.0042 742.31 Q64.0042 749.089 61.4897 751.667 Q58.9434 754.245 52.2594 754.245 L32.9077 754.245 L32.9077 758.542 L28.3562 758.542 L28.3562 754.245 L18.2347 754.245 L18.2347 748.357 Z" fill="#000000" fill-rule="evenodd" fill-opacity="1" /><path clip-path="url(#clip770)" d="M18.2347 722.799 L28.3562 722.799 L28.3562 710.736 L32.9077 710.736 L32.9077 722.799 L52.2594 722.799 Q56.6199 722.799 57.8613 721.621 Q59.1026 720.412 59.1026 716.751 L59.1026 710.736 L64.0042 710.736 L64.0042 716.751 Q64.0042 723.531 61.4897 726.109 Q58.9434 728.687 52.2594 728.687 L32.9077 728.687 L32.9077 732.984 L28.3562 732.984 L28.3562 728.687 L18.2347 728.687 L18.2347 722.799 Z" fill="#000000" fill-rule="evenodd" fill-opacity="1" /><path clip-path="url(#clip770)" d="M44.7161 672.542 L47.5806 672.542 L47.5806 699.469 Q53.6281 699.087 56.8109 695.84 Q59.9619 692.562 59.9619 686.737 Q59.9619 683.363 59.1344 680.212 Q58.3069 677.029 56.6518 673.91 L62.1899 673.91 Q63.5267 677.061 64.227 680.371 Q64.9272 683.682 64.9272 687.087 Q64.9272 695.617 59.9619 700.614 Q54.9967 705.58 46.5303 705.58 Q37.7774 705.58 32.6531 700.869 Q27.4968 696.127 27.4968 688.106 Q27.4968 680.912 32.1438 676.743 Q36.7589 672.542 44.7161 672.542 M42.9973 678.398 Q38.1912 678.462 35.3266 681.103 Q32.4621 683.713 32.4621 688.042 Q32.4621 692.944 35.2312 695.904 Q38.0002 698.832 43.0292 699.278 L42.9973 678.398 Z" fill="#000000" fill-rule="evenodd" fill-opacity="1" /><path clip-path="url(#clip770)" d="M28.3562 645.615 L28.3562 639.758 L56.1743 632.438 L28.3562 625.149 L28.3562 618.242 L56.1743 610.922 L28.3562 603.633 L28.3562 597.776 L64.0042 607.102 L64.0042 614.009 L34.7856 621.68 L64.0042 629.382 L64.0042 636.289 L28.3562 645.615 Z" fill="#000000" fill-rule="evenodd" fill-opacity="1" /><path clip-path="url(#clip770)" d="M28.3562 588.896 L28.3562 583.04 L64.0042 583.04 L64.0042 588.896 L28.3562 588.896 M14.479 588.896 L14.479 583.04 L21.895 583.04 L21.895 588.896 L14.479 588.896 Z" fill="#000000" fill-rule="evenodd" fill-opacity="1" /><path clip-path="url(#clip770)" d="M33.7671 547.328 L14.479 547.328 L14.479 541.472 L64.0042 541.472 L64.0042 547.328 L58.657 547.328 Q61.8398 549.174 63.3994 552.007 Q64.9272 554.808 64.9272 558.755 Q64.9272 565.216 59.771 569.29 Q54.6147 573.332 46.212 573.332 Q37.8093 573.332 32.6531 569.29 Q27.4968 565.216 27.4968 558.755 Q27.4968 554.808 29.0564 552.007 Q30.5842 549.174 33.7671 547.328 M46.212 567.285 Q52.6732 567.285 56.3653 564.643 Q60.0256 561.969 60.0256 557.322 Q60.0256 552.675 56.3653 550.002 Q52.6732 547.328 46.212 547.328 Q39.7508 547.328 36.0905 550.002 Q32.3984 552.675 32.3984 557.322 Q32.3984 561.969 36.0905 564.643 Q39.7508 567.285 46.212 567.285 Z" fill="#000000" fill-rule="evenodd" fill-opacity="1" /><path clip-path="url(#clip770)" d="M18.2347 523.616 L28.3562 523.616 L28.3562 511.553 L32.9077 511.553 L32.9077 523.616 L52.2594 523.616 Q56.6199 523.616 57.8613 522.438 Q59.1026 521.229 59.1026 517.568 L59.1026 511.553 L64.0042 511.553 L64.0042 517.568 Q64.0042 524.348 61.4897 526.926 Q58.9434 529.504 52.2594 529.504 L32.9077 529.504 L32.9077 533.801 L28.3562 533.801 L28.3562 529.504 L18.2347 529.504 L18.2347 523.616 Z" fill="#000000" fill-rule="evenodd" fill-opacity="1" /><path clip-path="url(#clip770)" d="M42.4881 474.218 L64.0042 474.218 L64.0042 480.074 L42.679 480.074 Q37.6183 480.074 35.1038 482.048 Q32.5894 484.021 32.5894 487.968 Q32.5894 492.71 35.6131 495.448 Q38.6368 498.185 43.8567 498.185 L64.0042 498.185 L64.0042 504.073 L14.479 504.073 L14.479 498.185 L33.8944 498.185 Q30.6797 496.084 29.0883 493.251 Q27.4968 490.387 27.4968 486.663 Q27.4968 480.52 31.3163 477.369 Q35.1038 474.218 42.4881 474.218 Z" fill="#000000" fill-rule="evenodd" fill-opacity="1" /><polyline clip-path="url(#clip772)" style="stroke:#009af9; stroke-linecap:butt; stroke-linejoin:round; stroke-width:8; stroke-opacity:1; fill:none" points="
  309.067,86.1857 705.9,1345.68 1102.73,781.196 1499.57,1233.36 1896.4,1103.9 2293.23,1384.24 
  "/>
<path clip-path="url(#clip770)" d="
M1996.53 196.789 L2282.65 196.789 L2282.65 93.1086 L1996.53 93.1086  Z
  " fill="#ffffff" fill-rule="evenodd" fill-opacity="1"/>
<polyline clip-path="url(#clip770)" style="stroke:#000000; stroke-linecap:butt; stroke-linejoin:round; stroke-width:4; stroke-opacity:1; fill:none" points="
  1996.53,196.789 2282.65,196.789 2282.65,93.1086 1996.53,93.1086 1996.53,196.789 
  "/>
<polyline clip-path="url(#clip770)" style="stroke:#009af9; stroke-linecap:butt; stroke-linejoin:round; stroke-width:4; stroke-opacity:1; fill:none" points="
  2019.9,144.949 2160.11,144.949 
  "/>
<path clip-path="url(#clip770)" d="M2197.32 164.636 Q2195.52 169.266 2193.8 170.678 Q2192.09 172.09 2189.22 172.09 L2185.82 172.09 L2185.82 168.525 L2188.32 168.525 Q2190.08 168.525 2191.05 167.692 Q2192.02 166.858 2193.2 163.756 L2193.97 161.812 L2183.48 136.303 L2187.99 136.303 L2196.1 156.581 L2204.2 136.303 L2208.71 136.303 L2197.32 164.636 Z" fill="#000000" fill-rule="evenodd" fill-opacity="1" /><path clip-path="url(#clip770)" d="M2216 158.293 L2223.64 158.293 L2223.64 131.928 L2215.33 133.595 L2215.33 129.335 L2223.6 127.669 L2228.27 127.669 L2228.27 158.293 L2235.91 158.293 L2235.91 162.229 L2216 162.229 L2216 158.293 Z" fill="#000000" fill-rule="evenodd" fill-opacity="1" /></svg>
